<svg width="16" height="14" viewBox="0 0 16 14" fill="none" xmlns="http://www.w3.org/2000/svg">
<g filter="url(#filter0_d_4104_357)">
<path d="M15 3.87524C15 8.25024 8.51312 11.7915 8.23687 11.9377C8.16406 11.9769 8.08268 11.9974 8 11.9974C7.91732 11.9974 7.83594 11.9769 7.76312 11.9377C7.48688 11.7915 1 8.25024 1 3.87524C1.00116 2.84789 1.40979 1.86294 2.13624 1.13648C2.86269 0.410032 3.84764 0.0014021 4.875 0.000244141C6.16563 0.000244141 7.29562 0.555244 8 1.49337C8.70438 0.555244 9.83438 0.000244141 11.125 0.000244141C12.1524 0.0014021 13.1373 0.410032 13.8638 1.13648C14.5902 1.86294 14.9988 2.84789 15 3.87524Z" fill="#333333"/>
</g>
<defs>
<filter id="filter0_d_4104_357" x="-3" y="0.000244141" width="22" height="19.9971" filterUnits="userSpaceOnUse" color-interpolation-filters="sRGB">
<feFlood flood-opacity="0" result="BackgroundImageFix"/>
<feColorMatrix in="SourceAlpha" type="matrix" values="0 0 0 0 0 0 0 0 0 0 0 0 0 0 0 0 0 0 127 0" result="hardAlpha"/>
<feOffset dy="4"/>
<feGaussianBlur stdDeviation="2"/>
<feComposite in2="hardAlpha" operator="out"/>
<feColorMatrix type="matrix" values="0 0 0 0 0 0 0 0 0 0 0 0 0 0 0 0 0 0 0.25 0"/>
<feBlend mode="normal" in2="BackgroundImageFix" result="effect1_dropShadow_4104_357"/>
<feBlend mode="normal" in="SourceGraphic" in2="effect1_dropShadow_4104_357" result="shape"/>
</filter>
</defs>
</svg>
